<svg width="73" height="16" viewBox="0 0 73 16" fill="none" xmlns="http://www.w3.org/2000/svg">
<g clip-path="url(#clip0)">
<path d="M16 7.99987C16.0172 5.87814 15.1908 3.83648 13.7027 2.32403C12.2145 0.811588 10.1865 -0.0477486 8.06479 -0.0649357C5.94306 -0.0821209 3.90141 0.744252 2.38896 2.23239C0.876522 3.72053 0.017186 5.74854 0 7.87027C0.0340823 6.55012 0.586823 5.29654 1.53852 4.38099C2.49021 3.46545 3.76425 2.96164 5.08473 2.97869C6.4052 2.99573 7.66582 3.53224 8.59357 4.47205C9.52132 5.41185 10.0415 6.67928 10.0415 7.99987C10.0415 9.32046 9.52132 10.5879 8.59357 11.5277C7.66582 12.4675 6.4052 13.004 5.08473 13.0211C3.76425 13.0381 2.49021 12.5343 1.53852 11.6188C0.586823 10.7032 0.0340823 9.44962 0 8.12947C0.017186 10.2512 0.876522 12.2792 2.38896 13.7674C3.90141 15.2555 5.94306 16.0819 8.06479 16.0647C10.1865 16.0475 12.2145 15.1882 13.7027 13.6757C15.1908 12.1633 16.0172 10.1216 16 7.99987Z" fill="url(#paint0_radial)"/>
<path d="M5.872 8C5.86944 6.39568 6.35156 4.82802 7.2552 3.5024C6.49936 3.12668 5.661 2.94755 4.81761 2.98156C3.97422 3.01557 3.15301 3.26163 2.42987 3.69699C1.70674 4.13235 1.10502 4.74297 0.680312 5.47242C0.255608 6.20187 0.0216297 7.0266 0 7.8704C0 7.9144 0 7.9568 0 8C0 8.0432 0 8.0856 0 8.1296C0.021756 8.97318 0.25575 9.79767 0.680366 10.5269C1.10498 11.2562 1.70653 11.8666 2.42944 12.302C3.15234 12.7373 3.9733 12.9834 4.81646 13.0176C5.65963 13.0518 6.49782 12.873 7.2536 12.4976C6.35053 11.1718 5.86896 9.60414 5.872 8Z" fill="url(#paint1_radial)"/>
</g>
<path d="M27.1832 13.2037C26.3103 12.7193 25.5872 12.0089 25.0912 11.1485C24.5701 10.2424 24.304 9.21443 24.3207 8.17183C24.304 7.12924 24.5701 6.10129 25.0912 5.19514C25.5872 4.33478 26.3103 3.62433 27.1832 3.13998C28.0727 2.64661 29.0773 2.3926 30.0969 2.40324C31.1165 2.3926 32.1211 2.64661 33.0107 3.13998C33.8833 3.62464 34.6064 4.33501 35.1027 5.19514C35.6237 6.10129 35.8898 7.12924 35.8731 8.17183C35.8898 9.21443 35.6237 10.2424 35.1027 11.1485C34.6064 12.0087 33.8833 12.719 33.0107 13.2037C32.1218 13.6996 31.1172 13.9562 30.0969 13.9479C29.0767 13.9562 28.072 13.6996 27.1832 13.2037ZM31.8369 11.3916C32.3711 11.0777 32.8089 10.6258 33.1034 10.0844C33.4211 9.49671 33.5815 8.83828 33.5694 8.17183C33.5817 7.50576 33.4213 6.84769 33.1034 6.26055C32.8089 5.71873 32.3711 5.26642 31.8369 4.95204C31.3079 4.6442 30.7055 4.48188 30.0919 4.48188C29.4783 4.48188 28.8759 4.6442 28.3469 4.95204C27.8161 5.26748 27.3818 5.71975 27.0905 6.26055C26.7726 6.84769 26.6121 7.50576 26.6245 8.17183C26.6123 8.83828 26.7727 9.49671 27.0905 10.0844C27.3832 10.6255 27.8193 11.0774 28.3519 11.3916C28.8809 11.6995 29.4833 11.8618 30.0969 11.8618C30.7105 11.8618 31.3129 11.6995 31.8419 11.3916H31.8369Z" fill="#F5F5F5"/>
<path d="M44.9188 5.97531C45.125 6.18013 45.2408 6.45755 45.2408 6.74677C45.2408 7.03599 45.125 7.31341 44.9188 7.51823C44.8177 7.62108 44.6964 7.7024 44.5624 7.75721C44.4284 7.81202 44.2846 7.83917 44.1396 7.83699C43.3045 7.83699 42.6944 8.04659 42.3094 8.46581C41.9244 8.88503 41.7324 9.61432 41.7332 10.6537V12.751C41.734 12.8929 41.706 13.0336 41.651 13.1646C41.5959 13.2956 41.5148 13.4144 41.4125 13.5138C41.3127 13.6189 41.1919 13.7023 41.0577 13.7587C40.9236 13.8151 40.779 13.8432 40.6333 13.8412C40.4886 13.8416 40.3453 13.8136 40.2116 13.7589C40.0778 13.7042 39.9563 13.6239 39.854 13.5226C39.7517 13.4213 39.6706 13.301 39.6154 13.1686C39.5601 13.0362 39.5319 12.8943 39.5322 12.751V6.84723C39.531 6.57136 39.6357 6.30534 39.8253 6.10315C40.0149 5.90096 40.275 5.77774 40.553 5.75849C40.8309 5.73924 41.1059 5.8254 41.322 5.99949C41.5382 6.17358 41.6794 6.42256 41.7169 6.69592C42.3015 6.00301 43.1091 5.65656 44.1396 5.65656C44.2846 5.65437 44.4284 5.68152 44.5624 5.73633C44.6964 5.79114 44.8177 5.87246 44.9188 5.97531Z" fill="#F5F5F5"/>
<path d="M54.9541 6.19359C55.5224 6.5623 55.9791 7.07666 56.2757 7.68194C56.6037 8.34158 56.769 9.06888 56.758 9.80407C56.7688 10.538 56.6035 11.2641 56.2757 11.9225C55.9795 12.528 55.5227 13.0424 54.9541 13.4108C54.4952 13.7049 53.9711 13.8845 53.4268 13.9342C52.8825 13.9838 52.3341 13.9022 51.8286 13.6961C51.4222 13.5279 51.0494 13.2894 50.7275 12.9916C50.6636 13.2535 50.5052 13.4833 50.2821 13.6376C50.0591 13.792 49.7868 13.8604 49.5164 13.8299C49.246 13.7995 48.9962 13.6722 48.8139 13.4722C48.6316 13.2721 48.5294 13.013 48.5265 12.7436V3.10651C48.5249 2.96129 48.5532 2.81727 48.6099 2.68332C48.6665 2.54936 48.7503 2.42831 48.856 2.32761C48.9587 2.22388 49.0813 2.14148 49.2166 2.08523C49.3519 2.02897 49.4972 2 49.6439 2C49.7907 2 49.9359 2.02897 50.0712 2.08523C50.2065 2.14148 50.3291 2.22388 50.4319 2.32761C50.5379 2.42811 50.622 2.5491 50.6789 2.68308C50.7357 2.81706 50.7642 2.96118 50.7626 3.10651V6.59544C51.0727 6.29768 51.4375 6.06149 51.8374 5.89964C52.3429 5.6988 52.8896 5.62069 53.4318 5.67183C53.974 5.72297 54.496 5.90187 54.9541 6.19359ZM53.9382 11.3247C54.3118 10.9045 54.5087 10.3586 54.4881 9.79911C54.5085 9.23932 54.3117 8.69302 53.9382 8.27232C53.77 8.08256 53.5629 7.93052 53.3307 7.82635C53.0985 7.72219 52.8465 7.66831 52.5915 7.66831C52.3366 7.66831 52.0846 7.72219 51.8523 7.82635C51.6201 7.93052 51.413 8.08256 51.2449 8.27232C50.871 8.6929 50.6738 9.23917 50.6937 9.79911C50.6736 10.3587 50.8708 10.9047 51.2449 11.3247C51.413 11.5144 51.6201 11.6665 51.8523 11.7706C52.0846 11.8748 52.3366 11.9287 52.5915 11.9287C52.8465 11.9287 53.0985 11.8748 53.3307 11.7706C53.5629 11.6665 53.77 11.5144 53.9382 11.3247Z" fill="#F5F5F5"/>
<path d="M60.5524 4.55758C60.4291 4.43938 60.332 4.29707 60.2673 4.13969C60.2026 3.98232 60.1717 3.81333 60.1766 3.64349C60.1766 3.47833 60.2094 3.31479 60.2732 3.1622C60.3371 3.00962 60.4306 2.87098 60.5486 2.75419C60.6665 2.63741 60.8066 2.54477 60.9607 2.48157C61.1148 2.41836 61.28 2.38583 61.4468 2.38583C61.6136 2.38583 61.7788 2.41836 61.9329 2.48157C62.087 2.54477 62.227 2.63741 62.345 2.75419C62.4629 2.87098 62.5565 3.00962 62.6203 3.1622C62.6842 3.31479 62.717 3.47833 62.717 3.64349C62.7196 3.89329 62.6473 4.13824 62.5092 4.34734C62.3712 4.55644 62.1736 4.72029 61.9414 4.81815C61.7093 4.91601 61.453 4.94349 61.2051 4.89711C60.9571 4.85072 60.7287 4.73256 60.5486 4.55758H60.5524ZM60.6626 13.5137C60.5565 13.413 60.4725 13.2918 60.4156 13.1576C60.3587 13.0234 60.3302 12.8791 60.3319 12.7336V6.86328C60.3416 6.57611 60.4636 6.30391 60.6723 6.10417C60.8809 5.90442 61.1597 5.79276 61.4499 5.79276C61.7401 5.79276 62.019 5.90442 62.2276 6.10417C62.4362 6.30391 62.5582 6.57611 62.5679 6.86328V12.7336C62.5689 12.9526 62.504 13.1669 62.3814 13.3492C62.2589 13.5315 62.0843 13.6735 61.8799 13.7572C61.6755 13.8409 61.4506 13.8624 61.2338 13.8191C61.017 13.7757 60.8181 13.6694 60.6626 13.5137Z" fill="#F5F5F5"/>
<path d="M72.6045 13.329C72.4699 13.4946 72.2911 13.6196 72.0884 13.6899C71.6559 13.8546 71.1964 13.9387 70.733 13.9379C70.2053 13.9441 69.6844 13.8201 69.2173 13.577C68.7559 13.3332 68.3805 12.9559 68.1412 12.4955C67.9581 12.1627 67.8347 11.8009 67.7767 11.4264C67.7195 10.9535 67.6939 10.4774 67.7002 10.0013V7.87044H66.8872C66.7536 7.87077 66.6213 7.84493 66.4978 7.79442C66.3743 7.74391 66.2621 7.66972 66.1677 7.57612C66.0733 7.48252 65.9985 7.37135 65.9476 7.24902C65.8967 7.1267 65.8708 6.99561 65.8713 6.86332C65.871 6.73114 65.897 6.60019 65.948 6.47801C65.9989 6.35582 66.0737 6.2448 66.1681 6.15133C66.2625 6.05786 66.3747 5.98378 66.4981 5.93335C66.6215 5.88292 66.7537 5.85712 66.8872 5.85745H67.7002V4.21407C67.6986 4.06856 67.7272 3.92427 67.784 3.7901C67.8409 3.65592 67.9249 3.53471 68.031 3.43392C68.1344 3.33012 68.2577 3.2477 68.3936 3.19145C68.5295 3.1352 68.6754 3.10623 68.8227 3.10623C68.97 3.10623 69.1158 3.1352 69.2517 3.19145C69.3876 3.2477 69.5109 3.33012 69.6144 3.43392C69.718 3.53601 69.7999 3.65766 69.8552 3.79167C69.9105 3.92568 69.9381 4.06931 69.9363 4.21407V5.85745H71.4608C71.5944 5.85679 71.7268 5.88236 71.8504 5.93268C71.974 5.983 72.0862 6.05706 72.1807 6.1506C72.2752 6.24413 72.35 6.35528 72.4008 6.47762C72.4516 6.59995 72.4774 6.73105 72.4768 6.86332C72.4776 6.99571 72.4519 7.12694 72.4011 7.24941C72.3504 7.37189 72.2756 7.48319 72.1811 7.57686C72.0866 7.67052 71.9743 7.7447 71.8507 7.7951C71.727 7.84549 71.5945 7.8711 71.4608 7.87044H69.9363V10.5581C69.9363 11.0286 70.0382 11.392 70.242 11.6484C70.3273 11.7568 70.4384 11.8427 70.5654 11.8983C70.6924 11.9539 70.8313 11.9775 70.9698 11.9671C71.1771 11.9646 71.3828 11.9307 71.5798 11.8667C71.6622 11.8481 71.746 11.8369 71.8304 11.8332C71.9563 11.8321 72.0811 11.856 72.1975 11.9035C72.3139 11.951 72.4195 12.0212 72.5081 12.1098C72.6021 12.1967 72.6767 12.3022 72.727 12.4195C72.7773 12.5368 72.8021 12.6633 72.8 12.7907C72.799 12.987 72.73 13.177 72.6045 13.329Z" fill="#F5F5F5"/>
<defs>
<radialGradient id="paint0_radial" cx="0" cy="0" r="1" gradientUnits="userSpaceOnUse" gradientTransform="translate(5.68719 7.37427) scale(14.0728)">
<stop offset="0.57" stop-color="#7232DA"/>
<stop offset="0.63" stop-color="#662DC4"/>
<stop offset="0.75" stop-color="#48208B"/>
<stop offset="0.92" stop-color="#190B30"/>
<stop offset="1"/>
</radialGradient>
<radialGradient id="paint1_radial" cx="0" cy="0" r="1" gradientUnits="userSpaceOnUse" gradientTransform="translate(3.2344 8.2272) scale(14.8336)">
<stop offset="0.25" stop-color="#562BAA"/>
<stop offset="0.53"/>
</radialGradient>
<clipPath id="clip0">
<rect width="16" height="16" fill="white"/>
</clipPath>
</defs>
</svg>
